<svg xmlns="http://www.w3.org/2000/svg" xmlns:xlink="http://www.w3.org/1999/xlink"><defs><symbol viewBox="0 0 20 14" id="arrow"><path d="M19 8H3.3l4.4 4.4c.4.4.4 1 0 1.3-.4.4-1 .4-1.4 0l-6-6c-.4-.4-.4-1 0-1.3L6.4.3c.4-.4 1-.4 1.4 0 .4.4.4 1 0 1.3L3.3 6H19c.6 0 1 .4 1 1s-.4 1-1 1z" /></symbol><symbol viewBox="0 0 29 12" id="arrow-redo"><path d="M.8 12c.5.1 1.1-.2 1.2-.7C3.2 5.8 8 2 13.5 2c4.9 0 9.2 3 11 7.5l-5.2-1.6c-.5-.3-1.1.1-1.3.6-.2.5.1 1.1.7 1.3l6.8 2.2c.5.2 1.1-.1 1.3-.7L29 4.4c.2-.5-.1-1.1-.7-1.3-.5-.2-1.1.1-1.3.7l-1.2 3.9C23.5 3 18.8 0 13.5 0 7.1 0 1.5 4.4 0 10.8c-.1.5.2 1.1.8 1.2z" /></symbol><symbol viewBox="0 0 29 12" id="arrow-undo"><path d="M28.2 12c-.5.1-1.1-.2-1.2-.7C25.8 5.8 21 2 15.5 2c-4.9 0-9.2 3-11 7.5l5.2-1.6c.5-.3 1.1.1 1.3.6.2.5-.1 1.1-.7 1.3L3.5 12c-.5.2-1.1-.1-1.3-.7L0 4.4c-.2-.5.1-1.1.7-1.3.6-.2 1.1.1 1.3.6l1.2 3.9C5.5 3 10.2 0 15.5 0 22 0 27.5 4.4 29 10.8c.1.5-.2 1.1-.8 1.2z" /></symbol><symbol viewBox="0 0 14 14" id="close"><path d="M8.4 7l5.3 5.3c.9.9-.5 2.3-1.4 1.4L7 8.4l-5.3 5.3c-.9.9-2.3-.5-1.4-1.4L5.6 7 .3 1.7C-.6.8.7-.7 1.7.3L7 5.6 12.3.3c1-1 2.3.5 1.4 1.4L8.4 7z" /></symbol><symbol viewBox="0 0 18 4" id="dots"><path d="M16 4c-1.1 0-2-.9-2-2s.9-2 2-2 2 .9 2 2-.9 2-2 2zM9 4c-1.1 0-2-.9-2-2s.9-2 2-2 2 .9 2 2-.9 2-2 2zM2 4C.9 4 0 3.1 0 2s.9-2 2-2 2 .9 2 2-.9 2-2 2z" /></symbol><symbol viewBox="0 0 22 22" id="edit"><path d="M21 22H1c-.6 0-1-.4-1-1s.4-1 1-1h20c.6 0 1 .4 1 1 0 .5-.4 1-1 1zM7.5 16.7L2 17l.4-5.1L14.1.8c1.2-1.1 3.3-1 4.7.3s1.8 3.3.4 4.5L7.5 16.7zm5.1-11.8l-8 7.6-.4 2.4 2.6-.3 8-7.6-2.2-2.1zm2.2-2.1l-.7.7 2.2 2.1.7-.7c1.9-1.8-.3-3.8-2.2-2.1z" /></symbol><symbol viewBox="0 0 16 16" id="plus"><path d="M15 9H9v6c0 .6-.4 1-1 1s-1-.4-1-1V9H1c-.6 0-1-.4-1-1s.4-1 1-1h6V1c0-.6.4-1 1-1s1 .4 1 1v6h6c.6 0 1 .4 1 1s-.4 1-1 1z" /></symbol><symbol viewBox="0 0 20 24" id="remove"><path d="M18 9v13c0 1.1-.9 2-2 2H4c-1.1 0-2-.9-2-2V9C.9 9 0 8.1 0 7V5c0-1.1.9-2 2-2h4V2c0-1.1.9-2 2-2h4c1.1 0 2 .9 2 2v1h4c1.1 0 2 .9 2 2v2c0 1.1-.9 2-2 2zM4 22h12V9H4v13zm8-20H8v1h4V2zm6 3H2v2h16V5zm-5 15c-.6 0-1-.4-1-1v-7c0-.6.4-1 1-1s1 .4 1 1v7c0 .6-.4 1-1 1zm-3 0c-.6 0-1-.4-1-1v-7c0-.6.4-1 1-1s1 .4 1 1v7c0 .6-.4 1-1 1zm-3 0c-.6 0-1-.4-1-1v-7c0-.6.4-1 1-1s1 .4 1 1v7c0 .6-.4 1-1 1z" /></symbol><symbol viewBox="0 0 22 22" id="save"><path d="M20 22H2c-1.1 0-2-.9-2-2V2C0 .9.9 0 2 0h14l6 6v14c0 1.1-.9 2-2 2zM6 20h10v-7H6v7zm8-18H6v4h8V2zm6 5l-4-4v4c0 .6-.4 1-1 1H5c-.6 0-1-.4-1-1V2H3c-.6 0-1 .4-1 1v16c0 .6.4 1 1 1h1v-9h14v9h1c.6 0 1-.4 1-1V7z" /></symbol></defs></svg>